{
	"asset":{
		"generator":"Khronos glTF Blender I/O v5.1.20",
		"version":"2.0"
	},
	"scene":1,
	"scenes":[
		{
			"name":"majkl"
		},
		{
			"name":"shaban",
			"nodes":[
				0
			]
		}
	],
	"nodes":[
		{
			"mesh":0,
			"name":"Cylinder.008",
			"scale":[
				0.07832629978656769,
				0.12957464158535004,
				0.07832629978656769
			],
			"translation":[
				-48.50609588623047,
				0.7944199442863464,
				1.35127592086792
			]
		}
	],
	"materials":[
		{
			"doubleSided":true,
			"name":"Material.007",
			"pbrMetallicRoughness":{
				"baseColorTexture":{
					"index":0
				},
				"metallicFactor":0,
				"roughnessFactor":0.5
			}
		}
	],
	"meshes":[
		{
			"name":"Cylinder.008",
			"primitives":[
				{
					"attributes":{
						"POSITION":0,
						"NORMAL":1,
						"TEXCOORD_0":2
					},
					"indices":3,
					"material":0
				}
			]
		}
	],
	"textures":[
		{
			"sampler":0,
			"source":0
		}
	],
	"images":[
		{
			"mimeType":"image/png",
			"name":"Can_Green_color",
			"uri":"Can_Green_color.png"
		}
	],
	"accessors":[
		{
			"bufferView":0,
			"componentType":5126,
			"count":342,
			"max":[
				0.9848077297210693,
				1.6387977600097656,
				0.9396926164627075
			],
			"min":[
				-0.9848077297210693,
				-1,
				-1
			],
			"type":"VEC3"
		},
		{
			"bufferView":1,
			"componentType":5126,
			"count":342,
			"type":"VEC3"
		},
		{
			"bufferView":2,
			"componentType":5126,
			"count":342,
			"type":"VEC2"
		},
		{
			"bufferView":3,
			"componentType":5123,
			"count":1122,
			"type":"SCALAR"
		}
	],
	"bufferViews":[
		{
			"buffer":0,
			"byteLength":4104,
			"byteOffset":0,
			"target":34962
		},
		{
			"buffer":0,
			"byteLength":4104,
			"byteOffset":4104,
			"target":34962
		},
		{
			"buffer":0,
			"byteLength":2736,
			"byteOffset":8208,
			"target":34962
		},
		{
			"buffer":0,
			"byteLength":2244,
			"byteOffset":10944,
			"target":34963
		}
	],
	"samplers":[
		{
			"magFilter":9729,
			"minFilter":9987
		}
	],
	"buffers":[
		{
			"byteLength":13188,
			"uri":"Green_can.bin"
		}
	]
}
