{
	"asset":{
		"generator":"Khronos glTF Blender I/O v5.1.20",
		"version":"2.0"
	},
	"scene":1,
	"scenes":[
		{
			"name":"majkl"
		},
		{
			"name":"shaban",
			"nodes":[
				0
			]
		}
	],
	"nodes":[
		{
			"mesh":0,
			"name":"right_connecting_Building.001",
			"rotation":[
				1,
				0,
				0,
				0
			],
			"scale":[
				-1,
				-1,
				-1
			],
			"translation":[
				80.76016235351562,
				6.565915584564209,
				-9.819771766662598
			]
		}
	],
	"materials":[
		{
			"doubleSided":true,
			"name":"Material.001",
			"pbrMetallicRoughness":{
				"baseColorTexture":{
					"index":0
				},
				"metallicFactor":0
			}
		}
	],
	"meshes":[
		{
			"name":"Cube.004",
			"primitives":[
				{
					"attributes":{
						"POSITION":0,
						"NORMAL":1,
						"TEXCOORD_0":2
					},
					"indices":3,
					"material":0
				}
			]
		}
	],
	"textures":[
		{
			"sampler":0,
			"source":0
		}
	],
	"images":[
		{
			"mimeType":"image/png",
			"name":"end_build_bake_col",
			"uri":"end_build_bake_col.png"
		}
	],
	"accessors":[
		{
			"bufferView":0,
			"componentType":5126,
			"count":6719,
			"max":[
				9.551395416259766,
				6.593321800231934,
				10.417388916015625
			],
			"min":[
				-1.1601624488830566,
				-6.631012916564941,
				-0.8743438720703125
			],
			"type":"VEC3"
		},
		{
			"bufferView":1,
			"componentType":5126,
			"count":6719,
			"type":"VEC3"
		},
		{
			"bufferView":2,
			"componentType":5126,
			"count":6719,
			"type":"VEC2"
		},
		{
			"bufferView":3,
			"componentType":5123,
			"count":14364,
			"type":"SCALAR"
		}
	],
	"bufferViews":[
		{
			"buffer":0,
			"byteLength":80628,
			"byteOffset":0,
			"target":34962
		},
		{
			"buffer":0,
			"byteLength":80628,
			"byteOffset":80628,
			"target":34962
		},
		{
			"buffer":0,
			"byteLength":53752,
			"byteOffset":161256,
			"target":34962
		},
		{
			"buffer":0,
			"byteLength":28728,
			"byteOffset":215008,
			"target":34963
		}
	],
	"samplers":[
		{
			"magFilter":9729,
			"minFilter":9987
		}
	],
	"buffers":[
		{
			"byteLength":243736,
			"uri":"end_building.bin"
		}
	]
}
