{
	"asset":{
		"generator":"Khronos glTF Blender I/O v5.1.20",
		"version":"2.0"
	},
	"scene":1,
	"scenes":[
		{
			"name":"majkl"
		},
		{
			"name":"shaban",
			"nodes":[
				0
			]
		}
	],
	"nodes":[
		{
			"mesh":0,
			"name":"baking2.001",
			"translation":[
				51.80265808105469,
				6.565915584564209,
				-9.819771766662598
			]
		}
	],
	"materials":[
		{
			"doubleSided":true,
			"name":"Material.004",
			"pbrMetallicRoughness":{
				"baseColorTexture":{
					"index":0
				},
				"metallicFactor":0
			}
		}
	],
	"meshes":[
		{
			"name":"Cube.005",
			"primitives":[
				{
					"attributes":{
						"POSITION":0,
						"NORMAL":1,
						"TEXCOORD_0":2
					},
					"indices":3,
					"material":0
				}
			]
		}
	],
	"textures":[
		{
			"sampler":0,
			"source":0
		}
	],
	"images":[
		{
			"mimeType":"image/png",
			"name":"end_build_2_bake_col",
			"uri":"end_build_2_bake_col.png"
		}
	],
	"accessors":[
		{
			"bufferView":0,
			"componentType":5126,
			"count":6599,
			"max":[
				9.508652687072754,
				9.08779525756836,
				10.417388916015625
			],
			"min":[
				-1.1601624488830566,
				-6.576309680938721,
				-0.8743438720703125
			],
			"type":"VEC3"
		},
		{
			"bufferView":1,
			"componentType":5126,
			"count":6599,
			"type":"VEC3"
		},
		{
			"bufferView":2,
			"componentType":5126,
			"count":6599,
			"type":"VEC2"
		},
		{
			"bufferView":3,
			"componentType":5123,
			"count":14184,
			"type":"SCALAR"
		}
	],
	"bufferViews":[
		{
			"buffer":0,
			"byteLength":79188,
			"byteOffset":0,
			"target":34962
		},
		{
			"buffer":0,
			"byteLength":79188,
			"byteOffset":79188,
			"target":34962
		},
		{
			"buffer":0,
			"byteLength":52792,
			"byteOffset":158376,
			"target":34962
		},
		{
			"buffer":0,
			"byteLength":28368,
			"byteOffset":211168,
			"target":34963
		}
	],
	"samplers":[
		{
			"magFilter":9729,
			"minFilter":9987
		}
	],
	"buffers":[
		{
			"byteLength":239536,
			"uri":"end_2_building.bin"
		}
	]
}
