{
	"asset":{
		"generator":"Khronos glTF Blender I/O v5.1.20",
		"version":"2.0"
	},
	"scene":1,
	"scenes":[
		{
			"name":"majkl"
		},
		{
			"name":"shaban",
			"nodes":[
				0
			]
		}
	],
	"nodes":[
		{
			"mesh":0,
			"name":"end_house.001",
			"scale":[
				2.5459506511688232,
				4.236651420593262,
				4.153043270111084
			],
			"translation":[
				-42.76516342163086,
				4.34205436706543,
				-29.97564697265625
			]
		}
	],
	"materials":[
		{
			"doubleSided":true,
			"name":"end_house_2",
			"normalTexture":{
				"index":0
			},
			"pbrMetallicRoughness":{
				"baseColorTexture":{
					"index":1
				},
				"metallicFactor":0,
				"roughnessFactor":0.5
			}
		}
	],
	"meshes":[
		{
			"name":"Cube.050",
			"primitives":[
				{
					"attributes":{
						"POSITION":0,
						"NORMAL":1,
						"TEXCOORD_0":2
					},
					"indices":3,
					"material":0
				}
			]
		}
	],
	"textures":[
		{
			"sampler":0,
			"source":0
		},
		{
			"sampler":0,
			"source":1
		}
	],
	"images":[
		{
			"mimeType":"image/png",
			"name":"houses_bake_normal",
			"uri":"houses_bake_normal.png"
		},
		{
			"mimeType":"image/png",
			"name":"houses_bake_bright",
			"uri":"houses_bake_bright.png"
		}
	],
	"accessors":[
		{
			"bufferView":0,
			"componentType":5126,
			"count":4242,
			"max":[
				1.0299615859985352,
				1.719386100769043,
				1.0589948892593384
			],
			"min":[
				-1.0900330543518066,
				-1,
				-1.0589948892593384
			],
			"type":"VEC3"
		},
		{
			"bufferView":1,
			"componentType":5126,
			"count":4242,
			"type":"VEC3"
		},
		{
			"bufferView":2,
			"componentType":5126,
			"count":4242,
			"type":"VEC2"
		},
		{
			"bufferView":3,
			"componentType":5123,
			"count":8238,
			"type":"SCALAR"
		}
	],
	"bufferViews":[
		{
			"buffer":0,
			"byteLength":50904,
			"byteOffset":0,
			"target":34962
		},
		{
			"buffer":0,
			"byteLength":50904,
			"byteOffset":50904,
			"target":34962
		},
		{
			"buffer":0,
			"byteLength":33936,
			"byteOffset":101808,
			"target":34962
		},
		{
			"buffer":0,
			"byteLength":16476,
			"byteOffset":135744,
			"target":34963
		}
	],
	"samplers":[
		{
			"magFilter":9729,
			"minFilter":9987
		}
	],
	"buffers":[
		{
			"byteLength":152220,
			"uri":"end_2_house.bin"
		}
	]
}
