{
	"asset":{
		"generator":"Khronos glTF Blender I/O v5.1.20",
		"version":"2.0"
	},
	"scene":1,
	"scenes":[
		{
			"name":"majkl"
		},
		{
			"name":"shaban",
			"nodes":[
				0
			]
		}
	],
	"nodes":[
		{
			"mesh":0,
			"name":"Cube.007",
			"translation":[
				-8.405864715576172,
				3.984330177307129,
				0.7449946403503418
			]
		}
	],
	"materials":[
		{
			"doubleSided":true,
			"name":"metal",
			"pbrMetallicRoughness":{
				"baseColorTexture":{
					"index":0
				},
				"metallicFactor":0,
				"roughnessFactor":0.2772727310657501
			}
		}
	],
	"meshes":[
		{
			"name":"Cube.054",
			"primitives":[
				{
					"attributes":{
						"POSITION":0,
						"NORMAL":1,
						"TEXCOORD_0":2
					},
					"indices":3,
					"material":0
				}
			]
		}
	],
	"textures":[
		{
			"sampler":0,
			"source":0
		}
	],
	"images":[
		{
			"mimeType":"image/png",
			"name":"fire_exit",
			"uri":"fire_exit.png"
		}
	],
	"accessors":[
		{
			"bufferView":0,
			"componentType":5126,
			"count":6336,
			"max":[
				1.6250267028808594,
				6.209560871124268,
				0.8748223781585693
			],
			"min":[
				-1.625030517578125,
				-0.9906164407730103,
				-0.915626049041748
			],
			"type":"VEC3"
		},
		{
			"bufferView":1,
			"componentType":5126,
			"count":6336,
			"type":"VEC3"
		},
		{
			"bufferView":2,
			"componentType":5126,
			"count":6336,
			"type":"VEC2"
		},
		{
			"bufferView":3,
			"componentType":5123,
			"count":10254,
			"type":"SCALAR"
		}
	],
	"bufferViews":[
		{
			"buffer":0,
			"byteLength":76032,
			"byteOffset":0,
			"target":34962
		},
		{
			"buffer":0,
			"byteLength":76032,
			"byteOffset":76032,
			"target":34962
		},
		{
			"buffer":0,
			"byteLength":50688,
			"byteOffset":152064,
			"target":34962
		},
		{
			"buffer":0,
			"byteLength":20508,
			"byteOffset":202752,
			"target":34963
		}
	],
	"samplers":[
		{
			"magFilter":9729,
			"minFilter":9987
		}
	],
	"buffers":[
		{
			"byteLength":223260,
			"uri":"Fire_exit.bin"
		}
	]
}
