{
	"asset":{
		"generator":"Khronos glTF Blender I/O v5.1.20",
		"version":"2.0"
	},
	"scene":1,
	"scenes":[
		{
			"name":"majkl"
		},
		{
			"name":"shaban",
			"nodes":[
				0
			]
		}
	],
	"nodes":[
		{
			"mesh":0,
			"name":"middle_Building.001",
			"translation":[
				45.55569839477539,
				15.827234268188477,
				-9.562812805175781
			]
		}
	],
	"materials":[
		{
			"doubleSided":true,
			"name":"Material",
			"normalTexture":{
				"index":0
			},
			"pbrMetallicRoughness":{
				"baseColorTexture":{
					"index":1
				},
				"metallicFactor":0,
				"roughnessFactor":0.5
			}
		}
	],
	"meshes":[
		{
			"name":"Cube.001",
			"primitives":[
				{
					"attributes":{
						"POSITION":0,
						"NORMAL":1,
						"TEXCOORD_0":2
					},
					"indices":3,
					"material":0
				}
			]
		}
	],
	"textures":[
		{
			"sampler":0,
			"source":0
		},
		{
			"sampler":0,
			"source":1
		}
	],
	"images":[
		{
			"mimeType":"image/png",
			"name":"middle_build_bake_normal",
			"uri":"middle_build_bake_normal.png"
		},
		{
			"mimeType":"image/png",
			"name":"middle_build_bake_col",
			"uri":"middle_build_bake_col.png"
		}
	],
	"accessors":[
		{
			"bufferView":0,
			"componentType":5126,
			"count":4913,
			"max":[
				9.50772476196289,
				-2.667996406555176,
				10.160429954528809
			],
			"min":[
				-0.5263514518737793,
				-15.89233112335205,
				-1.131302833557129
			],
			"type":"VEC3"
		},
		{
			"bufferView":1,
			"componentType":5126,
			"count":4913,
			"type":"VEC3"
		},
		{
			"bufferView":2,
			"componentType":5126,
			"count":4913,
			"type":"VEC2"
		},
		{
			"bufferView":3,
			"componentType":5123,
			"count":10914,
			"type":"SCALAR"
		}
	],
	"bufferViews":[
		{
			"buffer":0,
			"byteLength":58956,
			"byteOffset":0,
			"target":34962
		},
		{
			"buffer":0,
			"byteLength":58956,
			"byteOffset":58956,
			"target":34962
		},
		{
			"buffer":0,
			"byteLength":39304,
			"byteOffset":117912,
			"target":34962
		},
		{
			"buffer":0,
			"byteLength":21828,
			"byteOffset":157216,
			"target":34963
		}
	],
	"samplers":[
		{
			"magFilter":9729,
			"minFilter":9987
		}
	],
	"buffers":[
		{
			"byteLength":179044,
			"uri":"Middle_building.bin"
		}
	]
}
