{
	"asset":{
		"generator":"Khronos glTF Blender I/O v5.1.20",
		"version":"2.0"
	},
	"scene":1,
	"scenes":[
		{
			"name":"majkl"
		},
		{
			"name":"shaban",
			"nodes":[
				0
			]
		}
	],
	"nodes":[
		{
			"mesh":0,
			"name":"middle_house.002",
			"scale":[
				2.5459506511688232,
				4.236651420593262,
				4.153043270111084
			],
			"translation":[
				-37.55515670776367,
				4.34205436706543,
				-29.97564697265625
			]
		}
	],
	"materials":[
		{
			"doubleSided":true,
			"name":"middle_house",
			"normalTexture":{
				"index":0
			},
			"pbrMetallicRoughness":{
				"baseColorTexture":{
					"index":1
				},
				"metallicFactor":0,
				"roughnessFactor":0.5
			}
		}
	],
	"meshes":[
		{
			"name":"Cube.051",
			"primitives":[
				{
					"attributes":{
						"POSITION":0,
						"NORMAL":1,
						"TEXCOORD_0":2
					},
					"indices":3,
					"material":0
				}
			]
		}
	],
	"textures":[
		{
			"sampler":0,
			"source":0
		},
		{
			"sampler":0,
			"source":1
		}
	],
	"images":[
		{
			"mimeType":"image/png",
			"name":"middle_house_bake_normal",
			"uri":"middle_house_bake_normal.png"
		},
		{
			"mimeType":"image/png",
			"name":"middle_house_bake_col_bright",
			"uri":"middle_house_bake_col_bright.png"
		}
	],
	"accessors":[
		{
			"bufferView":0,
			"componentType":5126,
			"count":2877,
			"max":[
				1.0299596786499023,
				1.7193862199783325,
				1.0870939493179321
			],
			"min":[
				-1.0521280765533447,
				-1.0044970512390137,
				-1.0589948892593384
			],
			"type":"VEC3"
		},
		{
			"bufferView":1,
			"componentType":5126,
			"count":2877,
			"type":"VEC3"
		},
		{
			"bufferView":2,
			"componentType":5126,
			"count":2877,
			"type":"VEC2"
		},
		{
			"bufferView":3,
			"componentType":5123,
			"count":5676,
			"type":"SCALAR"
		}
	],
	"bufferViews":[
		{
			"buffer":0,
			"byteLength":34524,
			"byteOffset":0,
			"target":34962
		},
		{
			"buffer":0,
			"byteLength":34524,
			"byteOffset":34524,
			"target":34962
		},
		{
			"buffer":0,
			"byteLength":23016,
			"byteOffset":69048,
			"target":34962
		},
		{
			"buffer":0,
			"byteLength":11352,
			"byteOffset":92064,
			"target":34963
		}
	],
	"samplers":[
		{
			"magFilter":9729,
			"minFilter":9987
		}
	],
	"buffers":[
		{
			"byteLength":103416,
			"uri":"middle_house.bin"
		}
	]
}
