{
	"asset":{
		"generator":"Khronos glTF Blender I/O v5.1.20",
		"version":"2.0"
	},
	"scene":1,
	"scenes":[
		{
			"name":"majkl"
		},
		{
			"name":"shaban",
			"nodes":[
				0
			]
		}
	],
	"nodes":[
		{
			"mesh":0,
			"name":"standalone_Building.001",
			"translation":[
				-33.030696868896484,
				6.565915584564209,
				-9.819771766662598
			]
		}
	],
	"materials":[
		{
			"doubleSided":true,
			"name":"Material.003",
			"pbrMetallicRoughness":{
				"baseColorTexture":{
					"index":0
				},
				"metallicFactor":0,
				"roughnessFactor":0.5
			}
		}
	],
	"meshes":[
		{
			"name":"Cube.072",
			"primitives":[
				{
					"attributes":{
						"POSITION":0,
						"NORMAL":1,
						"TEXCOORD_0":2
					},
					"indices":3,
					"material":0
				}
			]
		}
	],
	"textures":[
		{
			"sampler":0,
			"source":0
		}
	],
	"images":[
		{
			"mimeType":"image/png",
			"name":"Building_bake",
			"uri":"Building_bake.png"
		}
	],
	"accessors":[
		{
			"bufferView":0,
			"componentType":5126,
			"count":7009,
			"max":[
				10.131570816040039,
				9.08779525756836,
				10.417388916015625
			],
			"min":[
				-1.1601624488830566,
				-6.631012916564941,
				-0.8743438720703125
			],
			"type":"VEC3"
		},
		{
			"bufferView":1,
			"componentType":5126,
			"count":7009,
			"type":"VEC3"
		},
		{
			"bufferView":2,
			"componentType":5126,
			"count":7009,
			"type":"VEC2"
		},
		{
			"bufferView":3,
			"componentType":5123,
			"count":14898,
			"type":"SCALAR"
		}
	],
	"bufferViews":[
		{
			"buffer":0,
			"byteLength":84108,
			"byteOffset":0,
			"target":34962
		},
		{
			"buffer":0,
			"byteLength":84108,
			"byteOffset":84108,
			"target":34962
		},
		{
			"buffer":0,
			"byteLength":56072,
			"byteOffset":168216,
			"target":34962
		},
		{
			"buffer":0,
			"byteLength":29796,
			"byteOffset":224288,
			"target":34963
		}
	],
	"samplers":[
		{
			"magFilter":9729,
			"minFilter":9987
		}
	],
	"buffers":[
		{
			"byteLength":254084,
			"uri":"Standalone_Building.bin"
		}
	]
}
