{
	"asset":{
		"generator":"Khronos glTF Blender I/O v5.1.20",
		"version":"2.0"
	},
	"scene":1,
	"scenes":[
		{
			"name":"majkl"
		},
		{
			"name":"shaban",
			"nodes":[
				0
			]
		}
	],
	"nodes":[
		{
			"mesh":0,
			"name":"Cube.002",
			"scale":[
				2.5459506511688232,
				4.236651420593262,
				4.153043270111084
			],
			"translation":[
				-21.589021682739258,
				4.34205436706543,
				-29.97564697265625
			]
		}
	],
	"materials":[
		{
			"doubleSided":true,
			"name":"standalone_house",
			"normalTexture":{
				"index":0
			},
			"pbrMetallicRoughness":{
				"baseColorTexture":{
					"index":1
				},
				"metallicFactor":0
			}
		}
	],
	"meshes":[
		{
			"name":"Cube.049",
			"primitives":[
				{
					"attributes":{
						"POSITION":0,
						"NORMAL":1,
						"TEXCOORD_0":2
					},
					"indices":3,
					"material":0
				}
			]
		}
	],
	"textures":[
		{
			"sampler":0,
			"source":0
		},
		{
			"sampler":0,
			"source":1
		}
	],
	"images":[
		{
			"mimeType":"image/png",
			"name":"standalone_house_bake_normal",
			"uri":"standalone_house_bake_normal.png"
		},
		{
			"mimeType":"image/png",
			"name":"standalone_house_bake",
			"uri":"standalone_house_bake.png"
		}
	],
	"accessors":[
		{
			"bufferView":0,
			"componentType":5126,
			"count":5902,
			"max":[
				1.0900330543518066,
				1.719386100769043,
				1.0870939493179321
			],
			"min":[
				-1.0900330543518066,
				-1.0044970512390137,
				-1.0589948892593384
			],
			"type":"VEC3"
		},
		{
			"bufferView":1,
			"componentType":5126,
			"count":5902,
			"type":"VEC3"
		},
		{
			"bufferView":2,
			"componentType":5126,
			"count":5902,
			"type":"VEC2"
		},
		{
			"bufferView":3,
			"componentType":5123,
			"count":11256,
			"type":"SCALAR"
		}
	],
	"bufferViews":[
		{
			"buffer":0,
			"byteLength":70824,
			"byteOffset":0,
			"target":34962
		},
		{
			"buffer":0,
			"byteLength":70824,
			"byteOffset":70824,
			"target":34962
		},
		{
			"buffer":0,
			"byteLength":47216,
			"byteOffset":141648,
			"target":34962
		},
		{
			"buffer":0,
			"byteLength":22512,
			"byteOffset":188864,
			"target":34963
		}
	],
	"samplers":[
		{
			"magFilter":9729,
			"minFilter":9987
		}
	],
	"buffers":[
		{
			"byteLength":211376,
			"uri":"standalone_house.bin"
		}
	]
}
