{
	"asset":{
		"generator":"Khronos glTF Blender I/O v5.1.20",
		"version":"2.0"
	},
	"scene":1,
	"scenes":[
		{
			"name":"majkl"
		},
		{
			"name":"shaban",
			"nodes":[
				0
			]
		}
	],
	"nodes":[
		{
			"mesh":0,
			"name":"Cube.005",
			"scale":[
				5,
				2.5,
				5
			],
			"translation":[
				-63.63334274291992,
				2.5,
				-30.30899429321289
			]
		}
	],
	"materials":[
		{
			"doubleSided":true,
			"name":"prodavnica",
			"normalTexture":{
				"index":0
			},
			"pbrMetallicRoughness":{
				"baseColorTexture":{
					"index":1
				},
				"metallicFactor":0,
				"roughnessFactor":0.5
			}
		}
	],
	"meshes":[
		{
			"name":"Cube.076",
			"primitives":[
				{
					"attributes":{
						"POSITION":0,
						"NORMAL":1,
						"TEXCOORD_0":2
					},
					"indices":3,
					"material":0
				}
			]
		}
	],
	"textures":[
		{
			"sampler":0,
			"source":0
		},
		{
			"sampler":0,
			"source":1
		}
	],
	"images":[
		{
			"mimeType":"image/png",
			"name":"store_normal",
			"uri":"store_normal.png"
		},
		{
			"mimeType":"image/png",
			"name":"store_color",
			"uri":"store_color.png"
		}
	],
	"accessors":[
		{
			"bufferView":0,
			"componentType":5126,
			"count":4597,
			"max":[
				1.0296027660369873,
				2.2849490642547607,
				1.0371086597442627
			],
			"min":[
				-1.0371086597442627,
				-1.004157543182373,
				-0.9846551418304443
			],
			"type":"VEC3"
		},
		{
			"bufferView":1,
			"componentType":5126,
			"count":4597,
			"type":"VEC3"
		},
		{
			"bufferView":2,
			"componentType":5126,
			"count":4597,
			"type":"VEC2"
		},
		{
			"bufferView":3,
			"componentType":5123,
			"count":9876,
			"type":"SCALAR"
		}
	],
	"bufferViews":[
		{
			"buffer":0,
			"byteLength":55164,
			"byteOffset":0,
			"target":34962
		},
		{
			"buffer":0,
			"byteLength":55164,
			"byteOffset":55164,
			"target":34962
		},
		{
			"buffer":0,
			"byteLength":36776,
			"byteOffset":110328,
			"target":34962
		},
		{
			"buffer":0,
			"byteLength":19752,
			"byteOffset":147104,
			"target":34963
		}
	],
	"samplers":[
		{
			"magFilter":9729,
			"minFilter":9987
		}
	],
	"buffers":[
		{
			"byteLength":166856,
			"uri":"Store.bin"
		}
	]
}
